<svg width="1861" height="345" viewBox="0 0 1861 345" fill="none" xmlns="http://www.w3.org/2000/svg">
<path d="M262.291 242.392C262.291 304.353 213.173 345 155.705 345H0V0H143.916C216.611 0 256.888 40.1509 256.888 97.6509C256.888 122.435 245.1 150.69 214.155 165.065V167.047C245.1 178.448 262.291 214.634 262.291 242.392ZM176.825 101.121C176.825 82.2845 165.037 68.4052 133.601 68.4052H75.6419V137.306H133.601C165.037 137.306 176.825 119.957 176.825 101.121ZM184.684 238.922C184.684 219.591 171.913 200.259 139.987 200.259H75.6419V276.595H139.987C171.913 276.595 184.684 258.75 184.684 238.922Z" fill="#EFDACC"/>
<path d="M577 345H491.534L437.505 211.659H388.386V345H312.744V0H464.028C523.952 0 574.544 37.1767 574.544 103.599C574.544 144.741 552.932 180.431 511.673 198.276L577 345ZM495.955 104.095C495.955 78.319 478.764 67.9095 453.222 67.9095H388.386V143.254H450.766C478.273 143.254 495.955 129.871 495.955 104.095Z" fill="#EFDACC"/>
<path d="M893.753 222.946C893.753 296.277 837.085 345 767.876 345C698.203 345 642 294.8 642 218.516V0H713.067V213.103C713.067 251.983 737.685 274.622 767.876 274.622C798.997 274.622 822.222 255.428 822.222 217.532V0H893.753V222.946Z" fill="#EFDACC"/>
<path d="M1219 342.539H1155.36L1073.15 216.548L1025.31 134.85L1024.38 135.342V342.539H952.848V0H1016.48L1084.3 104.829L1146.54 207.689L1147.47 207.197V0H1219V342.539Z" fill="#EFDACC"/>
<path d="M1474.24 232.277L1546.95 259.604C1530.02 312.793 1482.71 345 1417.96 345C1327.82 345 1284 289.859 1284 212.27V132.242C1284 61.9731 1327.82 0 1417.96 0C1483.7 0 1530.02 34.6464 1546.95 86.372L1474.24 111.747C1468.76 88.3239 1448.84 70.2687 1417.47 70.2687C1379.12 70.2687 1361.19 97.5955 1361.19 125.41V217.638C1361.19 246.917 1379.12 274.731 1417.47 274.731C1448.34 274.731 1468.76 257.164 1474.24 232.277Z" fill="#EFDACC"/>
<path d="M1861 342.072H1785.3V203.487H1671.76V342.072H1595.06V2.43988H1671.76V138.586H1785.3V2.43988H1861V342.072Z" fill="#EFDACC"/>
</svg>
