<svg width="1861" height="345" viewBox="0 0 1861 345" fill="none" xmlns="http://www.w3.org/2000/svg">
<path d="M193.752 232.277L267.804 259.604C250.559 312.793 202.374 345 136.438 345C44.6339 345 0 289.859 0 212.27V132.242C0 61.9731 44.6339 0 136.438 0C203.389 0 250.559 34.6464 267.804 86.372L193.752 111.747C188.173 88.3239 167.885 70.2687 135.931 70.2687C96.876 70.2687 78.6166 97.5955 78.6166 125.41V217.638C78.6166 246.917 96.876 274.731 135.931 274.731C167.377 274.731 188.173 257.164 193.752 232.277Z" fill="#EFDACC"/>
<path d="M438.533 0C523.744 0 577 56.1174 577 132.242V212.27C577 293.274 522.222 345 438.533 345C346.729 345 302.095 283.027 302.095 212.27V132.242C302.095 61.9731 346.729 0 438.533 0ZM438.026 70.2687C398.971 70.2687 380.712 97.5955 380.712 125.41V217.638C380.712 246.917 398.971 274.731 438.026 274.731C475.559 274.731 497.369 249.844 497.369 217.638V125.41C497.369 95.6436 475.559 70.2687 438.026 70.2687Z" fill="#EFDACC"/>
<path d="M910.218 68.4052H725.955V141.272H882.96V207.198H725.955V345H642V0H910.218V68.4052Z" fill="#EFDACC"/>
<path d="M1219 68.4052H1034.74V141.272H1191.74V207.198H1034.74V345H950.782V0H1219V68.4052Z" fill="#EFDACC"/>
<path d="M1547.6 345H1284V0H1547.6V68.4052H1366.51V138.297H1520.81V204.224H1366.51V276.595H1547.6V345Z" fill="#EFDACC"/>
<path d="M1861 345H1597.4V0H1861V68.4052H1679.91V138.297H1834.21V204.224H1679.91V276.595H1861V345Z" fill="#EFDACC"/>
</svg>
