<svg width="644" height="376" viewBox="0 0 644 376" fill="none" xmlns="http://www.w3.org/2000/svg">
<path d="M520.288 159.994L511.912 142.701C509.403 137.924 506.789 133.159 504.075 128.442C503.863 128.07 503.445 127.884 503.022 127.942C495.578 128.964 487.648 123.7 485.686 116.418C485.3 114.987 485.097 113.443 484.907 111.949C484.567 109.294 484.209 106.548 482.829 104.118C480.239 99.5608 475.27 97.878 470.463 96.2508C467.313 95.1795 464.045 94.0764 461.528 92.1737C455.094 87.3206 454.481 78.9742 453.83 70.1318C453.407 64.4676 452.977 58.6073 450.948 53.4586C447.469 44.6404 439.51 38.3806 431.812 32.3285C424.585 26.6522 417.665 21.2117 414.793 14.0564L418.22 1.48476C418.354 0.976875 418.093 0.449245 417.608 0.257358C416.473 -0.194299 415.271 -0.0463983 414.233 0.661085C412.336 1.96422 411.349 4.79458 411.356 6.91307C411.363 9.5154 411.83 11.9099 412.65 14.1483L399.902 61.0219C399.204 63.5762 398.432 65.9744 396.632 67.2339C394.201 68.9365 390.69 68.265 385.599 65.1271L360.736 49.7891C357.962 48.0783 354.824 46.1475 352.954 43.3094C348.875 37.1213 351.031 28.555 359.546 17.1224C359.767 16.8226 359.811 16.4309 359.661 16.091C359.513 15.7514 359.197 15.5194 358.827 15.4835C342.195 13.8526 325.727 10.3268 309.872 5.01031C309.359 4.83042 308.825 5.07816 308.615 5.56593C308.4 6.05368 308.587 6.62134 309.048 6.88109C312.199 8.644 314.197 12.3135 314.097 15.9232C307.135 14.1084 299.336 15.9952 292.951 21.0799C286.493 26.2204 282.881 33.5277 283.135 40.811C277.259 41.2226 271.51 42.9015 266.325 45.6998C266.341 44.1766 265.824 42.6378 264.797 41.2067C262.764 38.3606 259.156 36.5657 255.79 36.7456C250.327 37.0256 245.875 40.5713 241.415 44.4966L223.304 60.4022C223.037 60.6364 222.911 60.9927 222.969 61.3435L224.171 68.5289C222.811 69.4842 220.893 69.7 219.035 69.1086C216.97 68.441 215.442 66.9102 215.04 65.1115C214.971 64.8009 214.778 64.5173 214.481 64.4039C212.386 63.6012 210.214 63.8426 208.209 65.1071C205.026 67.1097 202.495 71.635 202.054 76.1039C201.919 77.4989 201.859 78.9381 201.795 80.3851C201.608 85.0981 201.433 89.5472 198.58 92.6372C195.918 95.5073 191.654 96.2589 187.532 96.9785L187.245 97.0302C161.404 101.563 136.74 112.436 115.919 128.466L115.536 129.122C114.292 137.795 115.24 146.737 118.101 155.01C118.579 156.394 118.807 157.85 118.691 159.31L116.933 181.441C116.81 182.979 117.045 184.521 117.608 185.957C123.976 202.186 129.458 218.795 133.704 235.664C134.651 239.434 135.407 243.087 134.181 246.297C133.509 248.063 131.906 249.586 130.087 250.182C129.184 250.474 127.847 250.654 126.61 249.844C126.224 249.586 125.711 249.623 125.369 249.936C125.019 250.242 124.927 250.746 125.138 251.167C130.915 262.646 144.275 269.529 156.939 267.588C161.921 266.817 166.6 264.809 171.123 262.867C175.289 261.08 179.594 259.232 184.034 258.413C188.347 257.622 192.939 257.767 197.367 257.893C203.884 258.094 210.616 258.298 216.715 255.579C219.699 254.252 222.333 252.301 224.876 250.415C225.966 249.607 227.052 248.8 228.17 248.04C238.478 241.029 251.059 238.286 263.23 235.632C273.292 233.435 283.696 231.164 293.01 226.502C316.373 232.678 336.939 249.179 348.082 270.709C348.258 271.045 348.6 271.261 348.975 271.266C349.416 271.317 349.707 271.066 349.885 270.732C355.841 259.888 362.384 249.204 369.361 238.91L361.149 271.126C361.022 271.625 361.284 272.145 361.762 272.331C362.24 272.515 362.788 272.324 363.04 271.869C364.87 268.494 368.212 266 371.942 265.172L372.444 273.928C372.465 274.268 372.652 274.579 372.938 274.751C373.232 274.926 373.599 274.947 373.898 274.8C377.748 272.985 382.705 274.008 386.516 277.429C390.332 280.85 391.913 285.676 390.551 289.73C390.073 291.145 389.315 292.58 388.578 293.97C386.946 297.048 385.264 300.229 386.207 303.74C386.946 306.493 389.188 308.769 393.054 310.692C409.32 318.778 430.661 313.39 441.336 298.72C442.29 300.319 442.47 302.401 442.655 304.579C442.84 306.769 443.034 309.029 444.021 311.039C445.327 313.701 447.534 315.376 450.402 315.891C451.047 316.004 451.72 316.063 452.404 316.063C458.325 316.063 465.626 312.026 470.28 307.582C475.05 303.02 482.786 298.504 488.388 299.311C490.609 299.631 492.31 300.802 493.451 302.785C493.715 303.245 494.293 303.429 494.766 303.199C495.242 302.985 495.478 302.428 495.302 301.929C490.532 288.253 497.168 273.571 503.574 263.665C506.084 259.777 508.901 255.954 511.624 252.262C517.018 244.942 522.597 237.366 526.181 228.805C535.28 207.055 530.466 183.502 520.288 159.994ZM480.66 350.889C480.385 350.143 480.087 349.409 479.784 348.673C479.016 346.826 478.291 345.064 478.004 343.249C479.541 341.634 480.535 339.644 480.704 337.576C480.731 337.267 480.618 336.973 480.405 336.761C480.186 336.545 479.888 336.437 479.59 336.469C477.061 336.708 475.769 339.499 475.836 342.002C475.841 342.154 475.848 342.31 475.857 342.462C474.706 343.437 473.338 344.144 472.042 344.521C468.341 345.586 464.283 344.852 461.159 344.093C455.841 342.8 450.703 340.842 445.871 338.273C446.081 338.121 446.236 337.893 446.284 337.613C446.374 337.054 445.998 336.52 445.443 336.43C444.824 336.324 444.255 336.501 443.797 336.909C442.972 337.645 442.734 338.974 442.778 339.895C443.026 344.896 444.868 349.807 447.962 353.734L448.524 354.434C449.605 355.756 450.62 357.008 450.74 358.446C450.8 359.209 450.278 360.123 449.543 360.535C449.141 360.749 448.806 360.762 448.528 360.553C448.154 360.275 447.636 360.282 447.278 360.574C446.915 360.866 446.793 361.365 446.98 361.793C449.742 368.057 455.314 372.87 461.887 374.676C462.48 374.837 463.213 375 463.973 375C464.725 375 465.503 374.839 466.192 374.36C467.362 373.548 467.736 372.242 468.062 371.082C468.187 370.675 468.302 370.254 468.457 369.875C469.344 367.74 471.663 366.704 474.115 365.609C476.504 364.547 478.975 363.445 480.472 361.202C482.16 358.667 482.222 355.096 480.66 350.889Z" fill="#FFFAF7"/>
<path d="M258.465 194.558L258.477 196.972L261.062 196.96L261.066 198.218L258.481 198.23L258.524 209.284L257.27 209.288L257.212 194.562C257.208 193.374 257.558 192.183 258.169 191.281C258.808 190.308 259.668 189.691 260.637 189.617L263.471 189.39L263.584 190.648L260.75 190.878C259.493 190.988 258.457 192.687 258.465 194.558ZM118.231 157.194C114.776 148.351 113.544 138.627 114.891 129.219C114.923 128.955 115.07 128.711 115.278 128.547C136.136 112.507 160.845 101.628 186.733 97.0917L187.02 97.0397C191.149 96.3198 195.422 95.5676 198.089 92.6958C200.947 89.6038 201.122 85.1519 201.309 80.436C201.373 78.9881 201.433 77.548 201.569 76.152C202.011 71.6802 204.546 67.1522 207.735 65.1484C209.716 63.9003 211.86 63.6482 213.933 64.4122C214.26 64.5322 214.503 64.8123 214.579 65.1523C214.981 66.9522 216.512 68.4841 218.58 69.1522C220.442 69.7441 222.363 69.5282 223.726 68.5722L222.522 61.3843C222.463 61.0324 222.586 60.6803 222.857 60.4403L241.001 44.5247C245.469 40.5968 249.93 37.0489 255.402 36.7688C258.774 36.5888 262.39 38.3848 264.426 41.2328C265.455 42.6648 265.973 44.2046 265.957 45.7286C271.151 42.9287 276.91 41.2487 282.797 40.8369C282.542 33.5489 286.161 26.2371 292.631 21.0933C299.028 16.0053 306.84 14.1174 313.816 15.9333C313.915 12.3213 311.914 8.64945 308.757 6.88545C308.295 6.62552 308.108 6.05752 308.323 5.56945C308.534 5.08139 309.068 4.83349 309.582 5.0135C325.467 10.3334 341.964 13.8614 358.625 15.4933C358.996 15.5293 359.315 15.7614 359.462 16.1012C359.614 16.4413 359.57 16.8332 359.347 17.1332C350.817 28.5731 348.656 37.1448 352.742 43.3367C354.615 46.1767 357.76 48.1086 360.538 49.8206L385.446 65.1683C390.548 68.3082 394.064 68.9802 396.499 67.2764C398.305 66.0162 399.078 63.6163 399.776 61.0605L412.546 14.1572C411.726 11.9174 411.259 9.52143 411.251 6.91746C411.243 4.79761 412.232 1.96548 414.133 0.661519C415.173 -0.0464122 416.377 -0.194441 417.513 0.257536C417.999 0.449579 418.262 0.977508 418.127 1.48571L414.695 14.0653C417.573 21.2251 424.504 26.6692 431.743 32.349C439.455 38.4048 447.431 44.6687 450.915 53.4925C452.948 58.6444 453.378 64.5084 453.801 70.1762C454.454 79.0241 455.068 87.3758 461.513 92.2319C464.036 94.1358 467.309 95.2397 470.466 96.3117C475.281 97.9398 480.259 99.6236 482.854 104.183C484.237 106.616 484.596 109.363 484.935 112.019C485.126 113.515 485.329 115.059 485.716 116.491C487.685 123.787 495.645 129.059 503.11 128.019C503.513 127.951 503.928 128.155 504.139 128.523C506.857 133.243 509.476 138.011 511.991 142.791C511.461 143.247 510.927 143.707 510.413 144.195C507.945 139.487 505.374 134.791 502.704 130.135C494.369 130.955 485.939 125.191 483.739 117.027C483.312 115.467 483.105 113.847 482.906 112.279C482.575 109.712 482.26 107.283 481.076 105.199C478.864 101.328 474.472 99.8395 469.812 98.2597C466.5 97.1397 463.068 95.9798 460.278 93.8718C453.095 88.4599 452.414 79.2441 451.756 70.3282C451.353 64.8124 450.927 59.1084 449.01 54.2486C445.733 45.9448 437.977 39.8568 430.479 33.969C424.022 28.897 417.413 23.7052 413.87 17.0932L401.749 61.6044C400.952 64.5322 400.043 67.3083 397.675 68.9642C393.494 71.8922 388.081 69.2002 384.374 66.9164L359.462 51.5725C356.509 49.7485 353.157 47.6926 351.036 44.4727C346.596 37.7488 348.429 28.865 356.644 17.3573C342.016 15.8052 327.519 12.8053 313.465 8.4255C315.33 11.0014 316.227 14.3013 315.725 17.4332C315.681 17.7293 315.506 17.9933 315.247 18.1493C314.996 18.3093 314.685 18.3413 314.394 18.2452C307.797 16.0693 300.136 17.7453 293.906 22.7051C287.664 27.669 284.3 34.773 284.898 41.7128C284.926 41.9929 284.83 42.2688 284.647 42.4807C284.468 42.6927 284.204 42.8208 283.926 42.8328C277.277 43.1328 270.756 45.1287 265.068 48.6086C264.693 48.8326 264.215 48.7967 263.88 48.5166C263.538 48.2287 263.418 47.7607 263.581 47.3526C264.418 45.2288 263.426 43.3608 262.764 42.4328C261.146 40.1689 258.184 38.6849 255.506 38.8209C250.695 39.0688 246.538 42.3927 242.352 46.0688L224.635 61.6123L225.851 68.8322C225.907 69.1804 225.783 69.5322 225.52 69.7683C223.615 71.4843 220.705 71.9963 217.955 71.1082C215.416 70.2923 213.466 68.4363 212.737 66.1884C211.426 65.8483 210.106 66.0843 208.823 66.8884C206.18 68.5523 203.984 72.5321 203.605 76.3601C203.474 77.7081 203.418 79.1121 203.362 80.5241C203.163 85.3998 202.96 90.448 199.588 94.0918C196.455 97.4797 191.632 98.3236 187.371 99.0677L187.088 99.1156C161.654 103.572 137.379 114.219 116.86 129.927C115.652 138.887 116.88 148.127 120.188 156.534C119.535 156.755 118.889 156.982 118.231 157.194ZM413.304 6.90953C413.304 8.0773 413.408 9.19734 413.603 10.2814L415.835 2.09745C415.652 2.14956 415.472 2.23344 415.289 2.36153C414.169 3.12947 413.296 5.12537 413.304 6.90953ZM481.078 351.088C482.644 355.3 482.581 358.872 480.891 361.408C479.392 363.652 476.916 364.756 474.521 365.82C472.066 366.916 469.742 367.952 468.853 370.088C468.698 370.468 468.582 370.888 468.459 371.296C468.132 372.456 467.757 373.764 466.585 374.576C465.896 375.056 465.114 375.216 464.361 375.216C463.6 375.216 462.866 375.052 462.272 374.892C455.688 373.084 450.103 368.268 447.337 362C447.15 361.572 447.274 361.072 447.636 360.78C447.995 360.488 448.513 360.48 448.888 360.76C449.167 360.968 449.502 360.956 449.904 360.74C450.641 360.328 451.164 359.416 451.104 358.652C450.984 357.212 449.968 355.96 448.884 354.636L448.322 353.936C445.221 350.008 443.375 345.092 443.128 340.088C443.084 339.168 443.323 337.837 444.148 337.1C444.607 336.692 445.177 336.516 445.799 336.62C446.353 336.712 446.731 337.244 446.64 337.804C446.592 338.084 446.437 338.312 446.225 338.464C451.068 341.036 456.214 342.996 461.543 344.288C464.672 345.048 468.737 345.784 472.445 344.716C473.744 344.34 475.115 343.632 476.267 342.656C476.259 342.504 476.251 342.348 476.247 342.196C476.179 339.692 477.475 336.9 480.006 336.66C480.305 336.628 480.604 336.736 480.823 336.953C481.038 337.165 481.15 337.46 481.122 337.768C480.954 339.836 479.958 341.828 478.419 343.444C478.706 345.26 479.432 347.024 480.201 348.872C480.504 349.608 480.803 350.344 481.078 351.088ZM479.161 351.8C478.89 351.088 478.599 350.372 478.304 349.656C477.678 348.14 477.036 346.588 476.638 344.96C475.561 345.712 474.338 346.308 473.01 346.692C468.853 347.896 464.437 347.112 461.061 346.288C455.536 344.948 450.203 342.916 445.189 340.248C445.468 344.736 447.146 349.132 449.924 352.66L450.47 353.336C451.642 354.776 452.973 356.408 453.145 358.488C453.272 360.04 452.324 361.744 450.896 362.536C450.625 362.688 450.342 362.8 450.063 362.872C452.782 367.74 457.429 371.432 462.81 372.908C464.074 373.256 464.903 373.248 465.425 372.884C465.991 372.488 466.222 371.676 466.489 370.736C466.629 370.244 466.772 369.752 466.964 369.296C468.163 366.4 470.973 365.148 473.692 363.944C475.916 362.952 478.025 362.012 479.189 360.264C480.839 357.788 480.081 354.292 479.161 351.8ZM248.66 190.925L251.494 190.695L251.381 189.437L248.547 189.663C247.578 189.738 246.722 190.355 246.079 191.331C245.472 192.23 245.118 193.425 245.122 194.613L245.18 209.339L246.437 209.331L246.395 198.277L248.979 198.269L248.971 197.011L246.387 197.019L246.379 194.605C246.371 192.734 247.407 191.035 248.66 190.925ZM518.767 161.535C528.584 184.402 533.16 207.226 524.399 228.149C520.9 236.497 515.383 243.973 510.054 251.197C507.308 254.917 504.47 258.765 501.915 262.709C495.868 272.056 489.634 285.532 492.308 298.76C491.264 298.092 490.068 297.66 488.721 297.464C482.344 296.552 474.169 301.232 468.867 306.288C464.152 310.788 456.212 315.044 450.724 314.064C448.492 313.668 446.837 312.408 445.813 310.328C444.996 308.664 444.824 306.688 444.649 304.596C444.402 301.676 444.143 298.656 441.963 296.46C441.767 296.264 441.508 296.156 441.237 296.156C441.205 296.156 441.169 296.16 441.137 296.164C440.835 296.188 440.556 296.356 440.388 296.612C430.71 311.08 409.39 316.772 393.829 309.044C390.508 307.396 388.615 305.548 388.037 303.396C387.3 300.672 388.731 297.976 390.246 295.124C391.019 293.66 391.82 292.144 392.35 290.572C394.004 285.664 392.238 280.104 387.734 276.073C383.669 272.428 378.623 271.153 374.23 272.564L373.748 264.065C373.732 263.781 373.596 263.513 373.377 263.333C373.158 263.153 372.883 263.077 372.592 263.105C369.451 263.517 366.47 264.969 364.138 267.113L372.584 234.013C372.708 233.533 372.472 233.033 372.022 232.825C371.571 232.617 371.037 232.761 370.754 233.169C362.854 244.449 355.468 256.245 348.788 268.257C337.113 246.909 316.335 230.645 292.83 224.553C292.583 224.493 292.332 224.518 292.112 224.634C282.929 229.297 272.502 231.569 262.417 233.769C250.041 236.469 237.242 239.257 226.584 246.497C225.44 247.269 224.328 248.093 223.216 248.917C220.645 250.825 218.21 252.625 215.424 253.861C209.736 256.385 203.526 256.201 196.937 256.001C192.381 255.865 187.678 255.721 183.154 256.553C178.474 257.417 174.05 259.313 169.781 261.141C165.365 263.033 160.797 264.989 156.057 265.725C145.104 267.401 133.521 261.993 127.606 252.629C128.403 252.677 129.256 252.569 130.105 252.293C132.493 251.517 134.605 249.513 135.49 247.185C136.929 243.413 136.116 239.417 135.08 235.309C130.603 217.546 124.788 200.07 118 183.022C117.366 183.306 116.737 183.602 116.107 183.894C122.855 200.826 128.65 218.177 133.095 235.813C134.043 239.585 134.801 243.241 133.573 246.453C132.899 248.221 131.293 249.745 129.471 250.341C128.567 250.633 127.227 250.813 125.988 250.001C125.601 249.745 125.087 249.781 124.744 250.093C124.393 250.401 124.302 250.905 124.513 251.325C130.301 262.813 143.685 269.701 156.372 267.757C161.363 266.985 166.05 264.977 170.582 263.033C174.755 261.245 179.068 259.397 183.516 258.577C187.837 257.785 192.437 257.929 196.873 258.057C203.402 258.257 210.146 258.461 216.257 255.741C219.246 254.413 221.885 252.461 224.432 250.573C225.524 249.765 226.612 248.957 227.732 248.197C238.06 241.181 250.663 238.437 262.856 235.781C272.936 233.581 283.359 231.309 292.69 226.645C316.096 232.825 336.699 249.337 347.863 270.881C348.039 271.216 348.382 271.433 348.756 271.436C349.199 271.489 349.49 271.237 349.669 270.905C355.636 260.053 362.189 249.361 369.18 239.061L360.953 271.297C360.825 271.796 361.089 272.317 361.567 272.504C362.045 272.689 362.595 272.496 362.846 272.04C364.68 268.665 368.028 266.169 371.767 265.341L372.269 274.1C372.289 274.441 372.476 274.752 372.763 274.924C373.058 275.1 373.425 275.12 373.724 274.972C377.582 273.156 382.549 274.18 386.367 277.604C390.19 281.028 391.772 285.856 390.409 289.912C389.93 291.328 389.169 292.764 388.432 294.156C386.798 297.236 385.112 300.42 386.056 303.932C386.798 306.688 389.042 308.964 392.916 310.888C409.21 318.98 430.591 313.588 441.285 298.908C442.242 300.508 442.421 302.592 442.608 304.772C442.792 306.964 442.987 309.224 443.975 311.236C445.283 313.9 447.495 315.576 450.369 316.092C451.015 316.204 451.688 316.264 452.374 316.264C458.305 316.264 465.619 312.224 470.282 307.776C475.062 303.212 482.81 298.692 488.422 299.5C490.646 299.82 492.352 300.992 493.496 302.976C493.759 303.436 494.337 303.62 494.812 303.392C495.29 303.176 495.525 302.62 495.35 302.12C490.571 288.436 497.219 273.744 503.636 263.833C506.152 259.941 508.973 256.117 511.7 252.421C517.105 245.097 522.693 237.517 526.284 228.949C535.4 207.186 530.577 183.618 520.381 160.095C519.835 160.567 519.293 161.043 518.767 161.535ZM229.501 208.358C228.672 207.675 228.096 206.815 227.874 205.843C227.543 204.116 227.536 201.272 227.851 199.538C228.061 198.605 228.633 197.698 229.455 197.015C230.315 196.362 231.354 195.999 232.358 195.995L233.004 195.991C234.044 195.988 235.052 196.343 235.912 196.987C236.776 197.667 237.356 198.57 237.539 199.499C237.87 201.23 237.878 204.073 237.563 205.804C237.387 206.78 236.819 207.643 235.959 208.331C235.099 208.983 234.098 209.347 233.055 209.35L232.409 209.354C231.405 209.358 230.361 209.003 229.501 208.358ZM229.128 205.585C229.385 206.952 230.899 208.097 232.405 208.093L233.051 208.089C234.558 208.081 236.06 206.925 236.34 205.558C236.624 204.007 236.613 201.343 236.321 199.761C236.029 198.394 234.515 197.245 233.008 197.253L232.362 197.257C230.856 197.261 229.353 198.421 229.108 199.788C228.789 201.374 228.801 204.038 229.128 205.585ZM216.543 197.32L217.189 197.316C218.696 197.312 220.21 198.456 220.467 199.823L221.685 199.566C221.498 198.632 220.922 197.73 220.058 197.085C219.233 196.405 218.19 196.05 217.185 196.054L216.539 196.058C215.496 196.062 214.496 196.425 213.635 197.113C212.775 197.765 212.207 198.667 212.032 199.601C211.716 201.37 211.724 204.179 212.055 205.905C212.238 206.878 212.818 207.741 213.682 208.421C214.542 209.065 215.551 209.421 216.59 209.417L217.236 209.413C218.24 209.409 219.28 209.046 220.105 208.394C220.961 207.706 221.533 206.843 221.709 205.87L220.486 205.62C220.241 206.987 218.738 208.147 217.232 208.151L216.586 208.155C215.08 208.159 213.566 207.015 213.274 205.647C212.982 204.104 212.97 201.44 213.254 199.851C213.534 198.484 215.037 197.323 216.543 197.32ZM643.999 154.623C618.693 171.875 587.203 178.222 568.776 178.222C540.451 178.222 543.339 163.594 543.475 152.139C543.475 146.758 543.611 142.342 539.213 142.342C533.713 142.342 522.024 150.207 513.772 157.66C505.932 164.697 498.645 171.322 493.558 171.322C489.568 171.322 488.194 168.699 488.194 164.972C488.194 162.754 488.851 160.015 489.664 157.514C471.783 167.004 443.665 177.531 414.482 177.531C401.142 177.531 396.191 172.562 396.055 165.25C396.055 162.878 396.507 160.546 397.27 158.294C389.115 162.58 377.683 166.384 359.882 166.492C339.392 166.629 327.979 161.523 321.927 155.176C312.989 164.697 299.65 173.804 292.499 173.804C283.148 173.804 279.711 159.314 279.021 142.756C273.247 147.172 268.434 150.621 262.109 154.623C262.106 154.624 262.105 154.623 262.102 154.624C236.939 171.458 213.974 174.633 202.149 174.633C183.722 174.633 179.183 161.662 178.222 152.139C172.583 161.248 164.057 168.838 157.593 168.838C153.057 168.838 150.719 166.353 150.719 161.385C150.719 160.417 150.94 159.371 151.253 158.297C135.494 167.584 114.128 174.632 98.0404 174.632C71.6375 174.632 76.7271 141.789 67.1009 141.789C54.7247 141.789 38.0843 162.351 32.0334 171.322C32.0334 171.322 30.9338 174.633 27.9095 170.494C30.385 156.555 34.7855 139.582 40.8344 122.055C31.4848 134.614 19.3828 145.102 2.46819 154.623C2.46819 154.623 -0.968877 156.693 0.268891 151.035C27.9095 135.303 40.6983 119.02 53.8995 90.1791C58.987 88.3841 57.7492 91.8354 57.7492 91.8354C46.8853 113.638 39.873 136.821 33.822 162.076C42.0723 151.588 55.6862 137.649 67.1009 137.649C81.2637 137.649 74.2514 170.494 98.0404 170.494C117.018 170.494 139.295 162.213 154.697 151.174C154.697 151.174 154.839 151.051 155.051 150.954C161.832 141.39 174.992 131.579 182.622 131.579C186.472 131.579 188.535 133.096 189.222 135.994C188.809 136.959 185.51 139.582 185.098 136.821C184.96 136.131 184.134 135.717 182.622 135.717C172.033 135.717 154.843 152.139 154.843 161.385C154.843 163.455 155.807 164.697 157.593 164.697C164.331 164.697 174.096 153.52 178.358 142.617C178.358 142.617 182.758 139.719 182.484 143.17C182.484 143.17 178.083 170.494 202.149 170.494C213.425 170.494 236.665 167.596 259.767 151.174C259.916 151.069 260.029 151.061 260.16 151.007C260.168 150.969 260.184 150.897 260.184 150.897C267.609 146.205 272.834 142.342 280.672 136.27C283.835 134.475 283.148 139.582 283.148 139.582C283.56 155.176 285.072 169.666 292.499 169.666C298.963 169.666 311.611 161.109 319.591 152.278C316.703 148.137 315.737 143.721 315.737 139.858C315.737 134.889 318.077 130.198 323.164 130.198C329.626 130.198 331.004 135.167 331.004 139.168C331.004 142.756 328.388 147.447 324.538 152.139C329.766 157.936 340.077 162.49 359.882 162.352C381.274 162.216 392.522 157.191 400.724 151.547C406.142 143.767 415.427 138.202 423.972 138.202C429.608 138.202 432.22 141.375 432.22 144.963C432.22 153.381 421.769 156.832 415.996 156.832C411.87 156.832 407.468 156.141 403.346 154.762C401.419 157.936 400.181 161.523 400.181 165.25C400.317 170.08 404.031 173.39 414.482 173.39C445.231 173.39 475.018 161.235 492.162 151.355C492.169 151.343 492.177 151.323 492.184 151.311C492.184 151.311 494.66 148.69 495.893 153.244C494.932 155.313 492.32 160.971 492.32 164.973C492.32 166.215 492.596 167.181 493.558 167.181C496.995 167.181 504.009 160.971 511.023 154.623C519.548 146.895 532.475 138.202 539.213 138.202C547.737 138.202 547.601 144.549 547.601 152.139C547.465 161.662 544.577 174.082 568.776 174.082C586.654 174.082 619.519 167.457 641.659 151.174C644.135 149.518 643.999 154.623 643.999 154.623ZM406.094 151.174C409.395 152.139 412.695 152.691 415.996 152.691C420.395 152.691 428.098 150.346 428.098 144.963C428.098 143.584 426.86 142.342 423.972 142.342C417.647 142.342 410.769 145.93 406.094 151.174ZM322.339 149.104C325.091 145.516 326.878 141.928 326.878 139.168C326.878 137.098 325.916 134.338 323.164 134.338C320.825 134.338 319.863 136.821 319.863 139.858C319.863 142.756 320.552 145.93 322.339 149.104ZM376.674 196.679L377.32 196.679C378.827 196.671 380.337 197.815 380.594 199.183L381.812 198.925C381.629 197.991 381.053 197.093 380.185 196.448C379.36 195.765 378.317 195.413 377.313 195.417L376.667 195.417C375.627 195.421 374.627 195.784 373.763 196.472C372.906 197.124 372.338 198.03 372.159 198.964C371.848 200.73 371.855 203.538 372.182 205.269C372.369 206.241 372.945 207.101 373.809 207.78C374.674 208.425 375.682 208.78 376.721 208.776L377.367 208.776C378.371 208.772 379.407 208.405 380.232 207.757C381.092 207.069 381.661 206.202 381.836 205.23L380.617 204.98C380.368 206.347 378.87 207.507 377.363 207.515L376.717 207.515C375.211 207.522 373.697 206.374 373.405 205.011C373.109 203.464 373.101 200.8 373.381 199.214C373.665 197.843 375.168 196.687 376.674 196.679ZM360.859 197.819L362.077 197.815L362.113 207.249C362.116 208.151 362.84 208.761 363.592 209.409L364.413 208.433C363.876 207.999 363.374 207.569 363.37 207.245L363.335 197.812L365.631 197.8L365.624 196.542L363.327 196.554L363.3 189.062L362.042 189.066L362.07 196.558L360.851 196.562L360.859 197.819ZM392.777 196.577L392.996 196.577C394.358 196.569 396.269 197.573 396.273 199.48L396.312 208.733L397.565 208.729L397.526 199.476C397.522 198.288 396.981 197.171 396.008 196.382C395.148 195.702 394.066 195.312 392.992 195.319L392.774 195.319C391.734 195.323 390.625 195.722 389.8 196.409C389.695 196.483 389.586 196.589 389.519 196.663L389.484 188.597L388.227 188.601L388.309 208.765L389.566 208.761L389.527 199.362C389.59 197.562 391.45 196.581 392.777 196.577ZM425.533 196.483L425.712 196.483C427.039 196.48 428.876 197.444 428.88 199.28L428.919 208.679L430.173 208.675L430.134 199.276C430.13 198.085 429.624 197.042 428.651 196.253C427.825 195.609 426.747 195.218 425.704 195.222L425.525 195.222C424.486 195.226 423.411 195.624 422.586 196.277C422.442 196.386 422.376 196.495 422.267 196.605C422.014 195.995 421.473 195.526 420.897 195.027L420.076 196.003C420.578 196.429 421.119 196.898 421.119 197.187L421.165 208.71L422.423 208.702L422.384 199.159C422.446 197.429 424.24 196.491 425.533 196.483ZM414.182 202.148L405.288 202.901C405.327 203.659 405.397 204.343 405.51 204.882C405.767 206.249 407.281 207.393 408.787 207.386L409.433 207.386C410.94 207.378 412.439 206.222 412.688 204.851L413.945 205.101C413.766 206.073 413.198 206.94 412.341 207.628C411.477 208.28 410.477 208.643 409.437 208.647L408.791 208.647C407.787 208.651 406.744 208.3 405.88 207.651C405.051 206.972 404.474 206.112 404.253 205.14C403.922 203.409 403.914 200.601 404.229 198.835C404.443 197.901 405.012 196.995 405.833 196.343C406.697 195.659 407.732 195.292 408.737 195.288L409.383 195.288C410.422 195.284 411.43 195.64 412.294 196.319C413.159 196.964 413.735 197.862 413.921 198.796C414.066 199.554 414.143 200.526 414.182 201.569L414.182 202.148ZM412.886 200.999C412.847 200.276 412.777 199.593 412.664 199.054C412.407 197.69 410.897 196.542 409.391 196.55L408.745 196.55C407.238 196.558 405.736 197.718 405.486 199.085C405.346 199.804 405.28 200.706 405.249 201.64L412.886 200.999ZM277.943 202.69L269.049 203.444C269.088 204.202 269.162 204.886 269.271 205.425C269.528 206.792 271.042 207.936 272.548 207.932L273.195 207.929C274.701 207.921 276.203 206.765 276.448 205.397L277.706 205.643C277.531 206.62 276.958 207.483 276.098 208.171C275.242 208.823 274.238 209.186 273.198 209.19L272.552 209.194C271.548 209.198 270.505 208.843 269.641 208.198C268.815 207.515 268.235 206.655 268.017 205.683C267.687 203.956 267.675 201.148 267.99 199.378C268.204 198.445 268.772 197.538 269.598 196.89C270.454 196.202 271.493 195.839 272.498 195.835L273.144 195.831C274.187 195.827 275.191 196.183 276.055 196.862C276.92 197.507 277.496 198.409 277.679 199.339C277.826 200.097 277.904 201.069 277.943 202.112L277.943 202.69ZM276.647 201.542C276.608 200.819 276.534 200.14 276.425 199.601C276.168 198.234 274.658 197.085 273.152 197.093L272.505 197.097C270.999 197.101 269.493 198.261 269.248 199.628C269.107 200.347 269.041 201.249 269.006 202.183L276.647 201.542ZM294.05 202.628L285.156 203.382C285.195 204.14 285.269 204.823 285.378 205.362C285.635 206.725 287.149 207.874 288.655 207.866L289.302 207.866C290.808 207.858 292.31 206.698 292.556 205.331L293.813 205.581C293.638 206.554 293.066 207.421 292.205 208.108C291.349 208.757 290.345 209.12 289.305 209.128L288.659 209.128C287.655 209.132 286.612 208.776 285.748 208.132C284.923 207.452 284.343 206.593 284.125 205.62C283.794 203.89 283.782 201.081 284.097 199.315C284.311 198.382 284.88 197.476 285.705 196.823C286.561 196.136 287.601 195.773 288.605 195.769L289.251 195.769C290.294 195.761 291.298 196.116 292.162 196.8C293.027 197.444 293.603 198.343 293.786 199.276C293.933 200.034 294.011 201.007 294.05 202.05L294.05 202.628ZM292.754 201.479C292.715 200.757 292.641 200.073 292.532 199.534C292.275 198.167 290.765 197.023 289.259 197.03L288.613 197.03C287.106 197.038 285.6 198.194 285.355 199.566C285.215 200.284 285.148 201.187 285.113 202.12L292.754 201.479ZM310.817 199.644L314.441 199.628L314.457 203.3L315.714 203.296L315.698 199.624L319.357 199.609L319.354 198.347L315.695 198.362L315.679 194.726L314.422 194.73L314.437 198.366L310.813 198.382L310.817 199.644ZM352.576 190.402L352.584 192.527L353.841 192.523L353.833 190.398L352.576 190.402ZM353.907 208.905L353.853 195.331L352.595 195.335L352.65 208.909L353.907 208.905ZM344.168 194.898L339.598 201.686L337.769 201.694L337.722 189.163L336.465 189.167L336.543 208.972L337.8 208.968L337.777 202.956L340.719 202.944C341.148 202.944 341.58 203.19 341.829 203.554L344.795 208.979L346.231 208.971L342.907 202.936L342.907 202.862C342.471 202.253 341.825 201.823 341.109 201.718L345.207 195.612L344.168 194.898Z" fill="#191919"/>
</svg>
