
<svg xmlns="http://www.w3.org/2000/svg" viewBox="0 0 25 10.7">
  <path d="M.04749,6.39863c-.1321-.45922.01613-.9328.38589-1.23352.08032-.06507.11933-.08763.24833-.14563.19451-.08626.21319-.08957.8903-.14552,6.61928-.54902,12.25582-.68724,17.34478-.42618.35592.01823.76665.04068.91308.05139.14597.00969.28162.01903.29859.02017.0391.00251.08611.03658-.47976-.35689-.72537-.50492-1.24423-.85053-2.35981-1.57686-.41509-.27041-.79027-.51979-.83476-.55629-.15526-.12731-.28724-.32282-.35661-.52773-.15835-.47253.02419-1.00676.4441-1.2999.12969-.08976.3276-.1687.48091-.18996.23564-.03193.46313.00137.67721.0997.07235.03401,1.2088.76729,1.89898,1.2254,1.35913.90305,2.39605,1.63975,3.39203,2.40846.21007.1617.4887.37672.62137.47654.71115.54024,1.0399.91229,1.2463,1.40969.16718.40327.18622.789.05768,1.16709-.29308.86022-1.25157,1.58027-3.50154,2.63011-.785.36567-2.7725,1.19569-2.97327,1.24081-.29102.06564-.57493.02507-.83935-.11976-.32439-.17674-.56003-.55551-.5809-.93417-.01995-.34892.12751-.69658.39365-.93064.14081-.12364.18645-.1454.96812-.4631.60245-.24465.89278-.37023,1.68569-.72689.52643-.2369,1.02064-.46424,1.09804-.50526l.14046-.07452-.33597-.02723c-.51255-.04068-1.49684-.10404-2.2018-.1397-4.92396-.25388-10.46453-.11862-16.90172.41387-.79395.06586-.85522.0645-1.07604-.00695-.34806-.11213-.64446-.41319-.74396-.75652Z" style="fill: #2B1A12;"/>
</svg>